<?xml version="1.0" encoding="iso-8859-1"?>
<!-- Generator: Adobe Illustrator 18.0.0, SVG Export Plug-In . SVG Version: 6.00 Build 0)  -->
<!DOCTYPE svg PUBLIC "-//W3C//DTD SVG 1.1//EN" "http://www.w3.org/Graphics/SVG/1.1/DTD/svg11.dtd">
<svg xmlns="http://www.w3.org/2000/svg" xmlns:xlink="http://www.w3.org/1999/xlink" version="1.1" id="Capa_1" x="0px" y="0px" viewBox="0 0 323.191 323.191" style="enable-background:new 0 0 323.191 323.191;" xml:space="preserve" width="512px" height="512px">
<g>
	<g>
		<path d="M289.843,127.325c-0.179,0-0.357-0.003-0.534-0.006c-0.074-0.001-0.22-0.003-0.443-0.003    c-3.109,0-15.912,0.264-35.535,4.076c16.588,9.372,25.906,20.536,25.906,31.398c0,12.723-12.775,25.861-35.051,36.046    c-7.313,3.344-15.365,6.236-23.968,8.675c0.704-4.741,1.288-9.571,1.767-14.464c-0.906,0.112-1.82,0.189-2.754,0.189    c-0.304,0-0.605-0.006-0.912-0.017l-16.369-0.707c-0.695,6.784-1.614,13.416-2.772,19.832    c-15.526,2.803-32.268,4.283-49.556,4.283c-17.289,0-34.029-1.48-49.558-4.283c-2.802-15.527-4.282-32.268-4.282-49.556    c0-17.288,1.481-34.029,4.282-49.557c11.015-1.988,22.646-3.295,34.644-3.896c-0.84-3.48-0.832-7.136,0.073-10.705    c0.913-3.601,2.667-6.846,5.097-9.519c-11.996,0.37-23.723,1.408-34.98,3.081c2.44-8.604,5.332-16.656,8.677-23.97    c10.186-22.275,23.323-35.051,36.048-35.051c10.786,0,21.87,9.187,31.201,25.556c11.053-10.436,24.748-28.584,28.105-33.286    c-18.193-7.887-38.246-12.269-59.307-12.269C67.12,13.172,0,80.29,0,162.79s67.12,149.618,149.621,149.618    c82.498,0,149.615-67.118,149.615-149.618c0-12.425-1.532-24.498-4.4-36.048C293.213,127.118,291.541,127.325,289.843,127.325z     M106.152,40.678c-3.868,5.612-7.477,12.029-10.767,19.229c-4.983,10.897-9.068,23.192-12.207,36.44    c-13.249,3.14-25.545,7.225-36.442,12.207c-7.199,3.292-13.616,6.899-19.229,10.769C40.561,82.762,69.591,53.732,106.152,40.678z     M55.052,126.744c7.314-3.344,15.368-6.236,23.972-8.676c-2.123,14.288-3.242,29.328-3.242,44.723s1.119,30.435,3.242,44.722    c-8.604-2.439-16.657-5.332-23.972-8.676C32.776,188.651,20,175.513,20,162.79C20,150.067,32.776,136.929,55.052,126.744z     M27.506,206.257c5.612,3.869,12.029,7.477,19.229,10.769c10.899,4.983,23.193,9.068,36.442,12.207    c3.139,13.249,7.225,25.543,12.207,36.44c3.291,7.2,6.899,13.617,10.767,19.229C69.591,271.849,40.56,242.818,27.506,206.257z     M149.621,292.409c-12.725,0-25.862-12.776-36.048-35.051c-3.345-7.314-6.236-15.367-8.677-23.97    c14.289,2.123,29.329,3.242,44.725,3.242c15.395,0,30.435-1.119,44.722-3.242c-2.439,8.604-5.331,16.656-8.676,23.97    C175.48,279.633,162.344,292.409,149.621,292.409z M193.087,284.903c3.869-5.612,7.477-12.029,10.769-19.229    c4.983-10.898,9.068-23.192,12.208-36.441c13.247-3.139,25.542-7.224,36.438-12.207c7.199-3.292,13.616-6.899,19.229-10.769    C258.678,242.819,229.648,271.849,193.087,284.903z" fill="#f8e510"/>
	</g>
	<g>
		<path d="M294.644,102.963l-50.808-85.302c-0.932-1.565-2.637-2.502-4.463-2.436c-1.82,0.06-3.465,1.107-4.291,2.731    c-0.166,0.327-16.886,32.614-58.014,69.291c-0.605,0.098-1.204,0.299-1.763,0.632l-20.937,12.471    c-2.372,1.413-3.15,4.482-1.738,6.854l19.835,33.302c0.936,1.571,2.597,2.442,4.301,2.442c0.87,0,1.752-0.228,2.554-0.705    l6.604-3.932c2.998,10.332,5.705,21.228,6.561,32.542c0.19,2.525,2.239,4.509,4.77,4.619l22.258,0.959    c0.073,0.003,0.146,0.005,0.219,0.005c2.532,0,4.68-1.903,4.966-4.442c2.126-18.928-2.003-40.398-4.13-49.702    c37.391-11.123,63.285-11.78,68.802-11.78c0.524,0,0.811,0.007,0.843,0.007c1.825,0.075,3.527-0.896,4.449-2.468    C295.583,106.479,295.576,104.53,294.644,102.963z M205.381,110.912l-8.712-14.627l-3.475-5.837    c25.083-22.516,39.203-42.729,45.291-52.576l34.709,58.272C261.602,96.824,236.989,99.633,205.381,110.912z" fill="#f8e510"/>
	</g>
	<g>
		<path d="M309.872,82.526c-1.098,0-2.203-0.359-3.126-1.1c-2.154-1.728-2.5-4.874-0.771-7.029    c8.567-10.679,9.616-25.756,2.61-37.517c-7.005-11.762-20.768-18.023-34.229-15.575c-2.723,0.496-5.32-1.309-5.813-4.026    c-0.493-2.717,1.31-5.319,4.026-5.813c17.556-3.186,35.478,4.97,44.607,20.296c9.13,15.327,7.763,34.976-3.401,48.893    C312.787,81.886,311.336,82.526,309.872,82.526z" fill="#f8e510"/>
	</g>
	<g>
		<path d="M289.746,74.706c-1.098,0-2.203-0.36-3.126-1.101c-2.153-1.728-2.498-4.875-0.77-7.029    c3.85-4.797,4.322-11.571,1.174-16.854c-3.147-5.285-9.332-8.099-15.38-7.001c-2.716,0.494-5.319-1.311-5.813-4.027    c-0.492-2.717,1.311-5.319,4.027-5.813c10.143-1.837,20.484,2.874,25.757,11.723c5.272,8.851,4.481,20.196-1.967,28.232    C292.662,74.065,291.211,74.706,289.746,74.706z" fill="#f8e510"/>
	</g>
</g>
<g>
</g>
<g>
</g>
<g>
</g>
<g>
</g>
<g>
</g>
<g>
</g>
<g>
</g>
<g>
</g>
<g>
</g>
<g>
</g>
<g>
</g>
<g>
</g>
<g>
</g>
<g>
</g>
<g>
</g>
</svg>
