<?xml version="1.0" encoding="iso-8859-1"?>
<!-- Generator: Adobe Illustrator 19.0.0, SVG Export Plug-In . SVG Version: 6.00 Build 0)  -->
<svg xmlns="http://www.w3.org/2000/svg" xmlns:xlink="http://www.w3.org/1999/xlink" version="1.1" id="Capa_1" x="0px" y="0px" viewBox="0 0 480.105 480.105" style="enable-background:new 0 0 480.105 480.105;" xml:space="preserve" width="512px" height="512px">
<g>
	<g>
		<path d="M90.64,368.001h13.464v-16H90.64c-13.632,0.043-25.003,10.428-26.28,24h-8.256v16h8v16h-8v16h8.256    c1.277,13.572,12.648,23.957,26.28,24h13.464v-16H90.64c-4.784-0.044-8.92-3.345-10.024-8h15.488v-16h-16v-16h16v-16H80.616    C81.72,371.346,85.857,368.044,90.64,368.001z" fill="#f8e510"/>
	</g>
</g>
<g>
	<g>
		<path d="M423.072,90.358c-1.844-5.929-6.032-10.847-11.592-13.613l-15.592-7.8c-3.376-1.686-4.745-5.789-3.059-9.165    c1.156-2.314,3.52-3.777,6.107-3.779h2.336c3.77,0.009,6.823,3.062,6.832,6.832v1.168h16v-1.168    c-0.037-9.94-6.511-18.71-16-21.672v-9.16h-16v9.16c-11.999,3.732-18.7,16.484-14.968,28.483    c1.844,5.929,6.032,10.847,11.592,13.613l15.592,7.8c3.376,1.686,4.745,5.789,3.059,9.165c-1.156,2.314-3.52,3.777-6.107,3.779    h-2.336c-3.77-0.009-6.823-3.062-6.832-6.832v-1.168h-16v1.168c0.037,9.94,6.511,18.71,16,21.672v9.16h16v-9.16    C420.103,115.108,426.804,102.356,423.072,90.358z" fill="#f8e510"/>
	</g>
</g>
<g>
	<g>
		<path d="M480.104,80.001c0.022-44.161-35.76-79.978-79.92-80c-21.254-0.01-41.637,8.441-56.648,23.488    C311.273,7.956,275.912-0.074,240.104,0.001c-132.486,0.15-239.85,107.514-240,240c-0.074,35.808,7.956,71.168,23.488,103.432    c-31.321,31.131-31.476,81.759-0.345,113.08c31.131,31.321,81.759,31.476,113.08,0.345c0.115-0.115,0.23-0.23,0.345-0.345    c32.264,15.532,67.624,23.562,103.432,23.488c132.486-0.15,239.85-107.514,240-240c0.074-35.809-7.953-71.172-23.48-103.44    C471.665,121.583,480.116,101.227,480.104,80.001z M179.944,24.273c-19.616,17.956-35.164,39.9-45.6,64.36    c-2.06-0.377-4.146-0.588-6.24-0.632c-19.001,0.024-35.373,13.389-39.2,32h-37.8C80.808,73.324,126.681,39.24,179.944,24.273z     M152.104,128.001c0,13.255-10.745,24-24,24s-24-10.745-24-24s10.745-24,24-24S152.104,114.746,152.104,128.001z M41.8,136.001    h47.104c2.576,12.322,10.796,22.716,22.192,28.064c-4.149,22.417-6.423,45.141-6.8,67.936H16.304    C17.457,198.488,26.173,165.669,41.8,136.001z M16.336,248.001h88c0.395,26.698,3.448,53.291,9.112,79.384    c-24.948-11.587-54.117-9.429-77.088,5.704C24.084,306.343,17.276,277.414,16.336,248.001z M80.104,464.001    c-35.346,0-64-28.654-64-64c0-35.346,28.654-64,64-64s64,28.654,64,64C144.065,435.33,115.434,463.961,80.104,464.001z     M147.016,443.72c3.253-4.991,5.936-10.331,8-15.92c7.213,10.346,15.671,19.767,25.184,28.048    C168.834,452.697,157.737,448.641,147.016,443.72z M232.104,463.433c-26.688-3.368-52.048-23.528-72.288-57.704    c0.136-1.896,0.288-3.792,0.288-5.728c-0.005-14.056-3.74-27.859-10.824-40h82.824V463.433z M232.104,344.001h-94.968    c-1.328-1.36-2.744-2.624-4.168-3.888c-7.971-30.07-12.208-61.007-12.616-92.112h111.752V344.001z M232.104,232.001H120.296    c0.375-21.519,2.507-42.972,6.376-64.144c0.488,0,0.944,0.144,1.432,0.144c19.001-0.024,35.373-13.389,39.2-32h64.8V232.001z     M232.104,120.001h-64.8c-2.226-10.671-8.706-19.973-17.944-25.76c21.264-45.968,50.848-73.704,82.744-77.688V120.001z     M400.104,16.001c35.346,0,64,28.654,64,64c0,35.346-28.654,64-64,64c-35.346,0-64-28.654-64-64    C336.144,44.671,364.775,16.04,400.104,16.001z M333.192,36.28c-3.254,4.99-5.938,10.331-8,15.92    c-7.211-10.348-15.669-19.769-25.184-28.048C311.375,27.304,322.472,31.36,333.192,36.28z M248.104,16.569    c26.688,3.368,52.048,23.528,72.288,57.704c-0.136,1.896-0.288,3.792-0.288,5.728c0.005,14.056,3.74,27.859,10.824,40h-82.824    V16.569z M248.104,136.001h94.968c1.328,1.36,2.744,2.624,4.168,3.888c7.971,30.07,12.208,61.006,12.616,92.112H248.104V136.001z     M248.104,248.001h111.808c-0.377,21.519-2.507,42.971-6.368,64.144c-0.488,0-0.944-0.144-1.44-0.144    c-19.001,0.024-35.373,13.389-39.2,32h-64.8V248.001z M376.104,352.001c0,13.255-10.745,24-24,24s-24-10.745-24-24    s10.745-24,24-24S376.104,338.746,376.104,352.001z M248.104,463.449V360.001h64.8c2.226,10.671,8.706,19.973,17.944,25.76    C309.584,431.728,280,459.465,248.104,463.449z M300.264,455.728v-0.008c19.616-17.956,35.164-39.9,45.6-64.36    c2.06,0.38,4.146,0.594,6.24,0.64c19.001-0.024,35.373-13.389,39.2-32h37.808C399.407,406.679,353.531,440.763,300.264,455.728z     M438.408,344.001h-47.104c-2.576-12.32-10.792-22.713-22.184-28.064c4.141-22.418,6.413-45.142,6.792-67.936h87.992    C462.752,281.513,454.036,314.332,438.408,344.001z M463.872,232.001h-88c-0.395-26.698-3.448-53.291-9.112-79.384    c24.951,11.587,54.122,9.429,77.096-5.704C456.126,173.66,462.932,202.588,463.872,232.001z" fill="#f8e510"/>
	</g>
</g>
<g>
	<g>
		<rect x="432.104" y="72.001" width="16" height="16" fill="#f8e510"/>
	</g>
</g>
<g>
	<g>
		<rect x="352.104" y="72.001" width="16" height="16" fill="#f8e510"/>
	</g>
</g>
<g>
	<g>
		<rect x="112.104" y="392.001" width="16" height="16" fill="#f8e510"/>
	</g>
</g>
<g>
	<g>
		<rect x="32.104" y="392.001" width="16" height="16" fill="#f8e510"/>
	</g>
</g>
<g>
</g>
<g>
</g>
<g>
</g>
<g>
</g>
<g>
</g>
<g>
</g>
<g>
</g>
<g>
</g>
<g>
</g>
<g>
</g>
<g>
</g>
<g>
</g>
<g>
</g>
<g>
</g>
<g>
</g>
</svg>
