<?xml version="1.0" encoding="iso-8859-1"?>
<!-- Generator: Adobe Illustrator 19.0.0, SVG Export Plug-In . SVG Version: 6.00 Build 0)  -->
<svg xmlns="http://www.w3.org/2000/svg" xmlns:xlink="http://www.w3.org/1999/xlink" version="1.1" id="Capa_1" x="0px" y="0px" viewBox="0 0 512.05 512.05" style="enable-background:new 0 0 512.05 512.05;" xml:space="preserve" width="512px" height="512px">
<g>
	<g>
		<g>
			<path d="M486.425,34.133h-57.133c-32.258-22.756-75.343-22.756-107.601,0h-23.862C293.775,14.268,276.3,0,256.025,0     s-37.749,14.268-41.804,34.133H25.625c-14.132,0.015-25.585,11.468-25.6,25.6v307.2c0.015,14.132,11.468,25.585,25.6,25.6     h152.643l-46.818,81.092c-7.025,12.239-2.817,27.854,9.407,34.906s27.848,2.877,34.926-9.331l54.642-94.712V486.4     c0,14.138,11.461,25.6,25.6,25.6c14.138,0,25.6-11.461,25.6-25.6v-81.912l54.633,94.695c4.555,7.949,13.011,12.856,22.172,12.867     c9.161,0.011,17.629-4.877,22.203-12.815c4.573-7.938,4.554-17.715-0.05-25.635l-46.802-81.067h152.644     c14.132-0.015,25.585-11.468,25.6-25.6v-307.2C512.01,45.601,500.557,34.149,486.425,34.133z M375.492,34.133     c42.396,0.046,76.754,34.404,76.8,76.8c0,42.415-34.385,76.8-76.8,76.8s-76.8-34.385-76.8-76.8S333.076,34.133,375.492,34.133z      M256.025,17.067c10.813,0.033,20.435,6.868,24.028,17.067h-48.055C235.59,23.935,245.212,17.1,256.025,17.067z M160.992,490.684     c-2.361,4.071-7.575,5.457-11.646,3.096c-4.071-2.361-5.457-7.575-3.096-11.646l51.729-89.6h19.637L160.992,490.684z      M264.559,486.4c0,4.713-3.82,8.533-8.533,8.533c-4.713,0-8.533-3.82-8.533-8.533v-93.867h17.067V486.4z M365.783,482.108     c1.535,2.632,1.548,5.884,0.033,8.528c-1.515,2.644-4.327,4.277-7.374,4.284c-3.047,0.006-5.866-1.616-7.392-4.253     l-56.616-98.133h19.637L365.783,482.108z M494.959,366.933c-0.003,4.711-3.822,8.53-8.533,8.533h-460.8     c-4.711-0.003-8.53-3.822-8.533-8.533v-307.2c0.003-4.711,3.822-8.53,8.533-8.533h277.516     c-16.108,19.449-23.675,44.581-20.983,69.69s15.414,48.066,35.278,63.659l-42.1,64.826c-10.712-3.829-22.644-1.823-31.514,5.3     l-24.748-19.291c6.203-14.302,1.928-30.988-10.387-40.546s-29.541-9.558-41.856,0c-12.315,9.558-16.59,26.245-10.387,40.546     l-24.748,19.291c-5.917-4.643-13.215-7.18-20.736-7.209c-15.128-0.035-28.483,9.869-32.841,24.356     c-4.358,14.486,1.314,30.115,13.95,38.433c12.636,8.318,29.234,7.35,40.817-2.38c11.583-9.73,15.401-25.913,9.389-39.794     l24.748-19.291c12.153,9.613,29.32,9.613,41.473,0l24.748,19.291c-6.847,15.618-1.128,33.894,13.402,42.822     c14.529,8.928,33.417,5.774,44.258-7.39c10.84-13.165,10.311-32.307-1.239-44.853l42.054-64.756     c39.549,20.909,88.36,10.979,116.596-23.72s28.039-84.509-0.471-118.983h38.583c4.711,0.003,8.53,3.822,8.533,8.533V366.933z      M281.625,281.6c0,9.426-7.641,17.067-17.067,17.067c-9.426,0-17.067-7.641-17.067-17.067     c0.012-9.421,7.646-17.054,17.067-17.067C273.984,264.533,281.625,272.174,281.625,281.6z M204.825,221.867     c0,9.426-7.641,17.067-17.067,17.067c-9.421-0.012-17.054-7.646-17.067-17.067c0-9.426,7.641-17.067,17.067-17.067     S204.825,212.441,204.825,221.867z M128.025,281.6c0,9.426-7.641,17.067-17.067,17.067s-17.067-7.641-17.067-17.067     c0-9.426,7.641-17.067,17.067-17.067C120.379,264.546,128.013,272.18,128.025,281.6z" fill="#f8e510"/>
			<path d="M460.825,332.8H59.758V85.333c0-4.713-3.82-8.533-8.533-8.533s-8.533,3.82-8.533,8.533v256     c-0.001,2.264,0.897,4.435,2.498,6.035c1.601,1.601,3.772,2.499,6.035,2.498h409.6c4.713,0,8.533-3.82,8.533-8.533     S465.538,332.8,460.825,332.8z" fill="#f8e510"/>
			<path d="M358.425,131.417c0-4.713-3.82-8.533-8.533-8.533s-8.533,3.82-8.533,8.533c0.923,14.173,11.565,25.803,25.6,27.978v2.739     c0,4.713,3.82,8.533,8.533,8.533s8.533-3.82,8.533-8.533v-2.739c14.035-2.175,24.677-13.806,25.6-27.978     c-0.92-14.175-11.563-25.81-25.6-27.986V80.22c4.631,1.401,7.986,5.422,8.533,10.23c0,4.713,3.821,8.533,8.533,8.533     s8.533-3.82,8.533-8.533c-0.923-14.173-11.565-25.803-25.6-27.978v-2.739c0-4.713-3.82-8.533-8.533-8.533     s-8.533,3.82-8.533,8.533v2.739c-14.035,2.175-24.677,13.806-25.6,27.978c0.92,14.175,11.563,25.81,25.6,27.986v23.209     C362.327,140.245,358.973,136.224,358.425,131.417z M384.025,121.181c4.632,1.404,7.985,5.427,8.533,10.235     c-0.548,4.807-3.902,8.829-8.533,10.23V121.181z M358.425,90.45c0.548-4.807,3.902-8.829,8.533-10.229v20.465     C362.327,99.282,358.973,95.259,358.425,90.45z" fill="#f8e510"/>
		</g>
	</g>
</g>
<g>
</g>
<g>
</g>
<g>
</g>
<g>
</g>
<g>
</g>
<g>
</g>
<g>
</g>
<g>
</g>
<g>
</g>
<g>
</g>
<g>
</g>
<g>
</g>
<g>
</g>
<g>
</g>
<g>
</g>
</svg>
